<svg width="32" height="32" viewBox="0 0 32 32" fill="none" xmlns="http://www.w3.org/2000/svg">
<path d="M16 0C24.8352 0 32 7.1648 32 16C32 24.8352 24.8352 32 16 32C7.1648 32 0 24.8352 0 16C0 7.1648 7.1648 0 16 0Z" fill="#1DA1F2"/>
<path d="M12.6553 23C19.4485 23 23.1677 17.6139 23.1677 12.9417C23.1677 12.7901 23.1677 12.6357 23.1562 12.4841C23.8793 11.9825 24.5045 11.365 25 10.6538C24.3259 10.9405 23.6114 11.128 22.8796 11.2106C23.6517 10.7696 24.2279 10.075 24.5045 9.25632C23.7785 9.66703 22.9862 9.95922 22.1594 10.1136C20.7593 8.69125 18.42 8.62234 16.9334 9.95922C15.9741 10.822 15.5679 12.1093 15.8646 13.3359C12.8944 13.1925 10.1258 11.8501 8.25032 9.64222C7.27081 11.2575 7.76921 13.3221 9.39405 14.3613C8.80634 14.3447 8.23015 14.1931 7.71735 13.9202C7.71735 13.934 7.71735 13.9506 7.71735 13.9643C7.71735 15.6458 8.95615 17.0957 10.6818 17.4292C10.1373 17.5698 9.5669 17.5918 9.01376 17.4898C9.49776 18.9287 10.8835 19.9155 12.4651 19.9458C11.1572 20.9299 9.54097 21.4647 7.87868 21.4619C7.58483 21.4619 7.29097 21.4454 7 21.4095C8.68246 22.4487 10.6501 23 12.6553 22.9972" fill="white"/>
</svg>
