<svg width="32" height="32" viewBox="0 0 32 32" fill="none" xmlns="http://www.w3.org/2000/svg">
<path d="M16 32C7.1648 32 0 24.8352 0 16C0 7.1648 7.1648 0 16 0C24.8352 0 32 7.1648 32 16C32 24.8352 24.8352 32 16 32Z" fill="#FF0000"/>
<path d="M25.5843 11.1868C25.3554 10.3252 24.6777 9.64915 23.8163 9.4188C22.256 9 16.003 9 16.003 9C16.003 9 9.74699 9 8.18976 9.4188C7.32831 9.64915 6.6506 10.3252 6.42169 11.1868C6 12.7453 6 16 6 16C6 16 6 19.2547 6.41867 20.8132C6.64759 21.6748 7.3253 22.3509 8.18675 22.5812C9.74699 23 16 23 16 23C16 23 22.256 23 23.8133 22.5812C24.6747 22.3509 25.3524 21.6748 25.5813 20.8132C26 19.2547 26 16 26 16C26 16 26 12.7453 25.5843 11.1868ZM13.9548 18.9526V13.0474L19.1807 16L13.9548 18.9526Z" fill="white"/>
</svg>
